<mxfile host="app.diagrams.net" modified="2022-12-09T20:29:53.793Z" agent="5.0 (Windows NT 10.0; Win64; x64) AppleWebKit/537.36 (KHTML, like Gecko) Chrome/108.0.0.0 Safari/537.36 Edg/108.0.1462.42" etag="UACFVPDeafo0owAYVAwU" version="20.6.0" type="github">
  <diagram id="y32QRQLeE-h2w88of9bp" name="Page-1">
    <mxGraphModel dx="2333" dy="1981" grid="1" gridSize="10" guides="1" tooltips="1" connect="1" arrows="1" fold="1" page="1" pageScale="1" pageWidth="850" pageHeight="1100" math="0" shadow="0">
      <root>
        <mxCell id="0" />
        <mxCell id="1" parent="0" />
        <mxCell id="FPwjYm_Yo13kNJ0HPoff-21" style="edgeStyle=orthogonalEdgeStyle;rounded=0;orthogonalLoop=1;jettySize=auto;html=1;entryX=0.5;entryY=0;entryDx=0;entryDy=0;" parent="1" source="FPwjYm_Yo13kNJ0HPoff-1" target="FPwjYm_Yo13kNJ0HPoff-9" edge="1">
          <mxGeometry relative="1" as="geometry" />
        </mxCell>
        <mxCell id="RJ8ETu-vLiPewFTwWk4d-7" style="edgeStyle=orthogonalEdgeStyle;rounded=0;orthogonalLoop=1;jettySize=auto;html=1;entryX=0;entryY=0.5;entryDx=0;entryDy=0;" edge="1" parent="1" source="FPwjYm_Yo13kNJ0HPoff-1" target="FPwjYm_Yo13kNJ0HPoff-18">
          <mxGeometry relative="1" as="geometry" />
        </mxCell>
        <mxCell id="FPwjYm_Yo13kNJ0HPoff-1" value="&lt;font style=&quot;font-size: 24px;&quot;&gt;Username&lt;/font&gt;" style="rounded=1;whiteSpace=wrap;html=1;fillColor=#f8cecc;gradientColor=#ea6b66;strokeColor=#b85450;" parent="1" vertex="1">
          <mxGeometry x="-190" y="60" width="200" height="100" as="geometry" />
        </mxCell>
        <mxCell id="RJ8ETu-vLiPewFTwWk4d-17" style="edgeStyle=orthogonalEdgeStyle;rounded=0;orthogonalLoop=1;jettySize=auto;html=1;exitX=0.5;exitY=1;exitDx=0;exitDy=0;entryX=0.5;entryY=0;entryDx=0;entryDy=0;" edge="1" parent="1" source="FPwjYm_Yo13kNJ0HPoff-2" target="FPwjYm_Yo13kNJ0HPoff-18">
          <mxGeometry relative="1" as="geometry" />
        </mxCell>
        <mxCell id="RJ8ETu-vLiPewFTwWk4d-18" style="edgeStyle=orthogonalEdgeStyle;rounded=0;orthogonalLoop=1;jettySize=auto;html=1;entryX=0.404;entryY=0.005;entryDx=0;entryDy=0;entryPerimeter=0;" edge="1" parent="1" source="FPwjYm_Yo13kNJ0HPoff-2" target="FPwjYm_Yo13kNJ0HPoff-33">
          <mxGeometry relative="1" as="geometry" />
        </mxCell>
        <mxCell id="FPwjYm_Yo13kNJ0HPoff-2" value="&lt;font style=&quot;font-size: 24px;&quot;&gt;Phone number&lt;/font&gt;" style="rounded=1;whiteSpace=wrap;html=1;fillColor=#f8cecc;gradientColor=#ea6b66;strokeColor=#b85450;" parent="1" vertex="1">
          <mxGeometry x="80" y="60" width="210" height="100" as="geometry" />
        </mxCell>
        <mxCell id="RJ8ETu-vLiPewFTwWk4d-8" style="edgeStyle=orthogonalEdgeStyle;rounded=0;orthogonalLoop=1;jettySize=auto;html=1;entryX=1;entryY=0.5;entryDx=0;entryDy=0;" edge="1" parent="1" source="FPwjYm_Yo13kNJ0HPoff-4" target="FPwjYm_Yo13kNJ0HPoff-18">
          <mxGeometry relative="1" as="geometry">
            <Array as="points">
              <mxPoint x="368" y="130" />
              <mxPoint x="368" y="250" />
            </Array>
          </mxGeometry>
        </mxCell>
        <mxCell id="RJ8ETu-vLiPewFTwWk4d-9" style="edgeStyle=orthogonalEdgeStyle;rounded=0;orthogonalLoop=1;jettySize=auto;html=1;exitX=0.5;exitY=1;exitDx=0;exitDy=0;entryX=0.5;entryY=0;entryDx=0;entryDy=0;" edge="1" parent="1" source="FPwjYm_Yo13kNJ0HPoff-4" target="FPwjYm_Yo13kNJ0HPoff-58">
          <mxGeometry relative="1" as="geometry" />
        </mxCell>
        <mxCell id="FPwjYm_Yo13kNJ0HPoff-4" value="&lt;font style=&quot;font-size: 24px;&quot;&gt;Email&lt;/font&gt;" style="rounded=1;whiteSpace=wrap;html=1;fillColor=#f8cecc;gradientColor=#ea6b66;strokeColor=#b85450;" parent="1" vertex="1">
          <mxGeometry x="420" y="60" width="210" height="100" as="geometry" />
        </mxCell>
        <mxCell id="FPwjYm_Yo13kNJ0HPoff-6" value="&lt;font style=&quot;font-size: 24px;&quot;&gt;Database&amp;nbsp;&lt;br&gt;(Centralized)&lt;br&gt;&lt;/font&gt;" style="rounded=1;whiteSpace=wrap;html=1;fillColor=#ffcd28;gradientColor=#ffa500;strokeColor=#d79b00;" parent="1" vertex="1">
          <mxGeometry x="-190" y="660" width="200" height="100" as="geometry" />
        </mxCell>
        <mxCell id="RJ8ETu-vLiPewFTwWk4d-10" style="edgeStyle=orthogonalEdgeStyle;rounded=0;orthogonalLoop=1;jettySize=auto;html=1;entryX=0.5;entryY=0;entryDx=0;entryDy=0;" edge="1" parent="1" source="FPwjYm_Yo13kNJ0HPoff-9" target="FPwjYm_Yo13kNJ0HPoff-45">
          <mxGeometry relative="1" as="geometry" />
        </mxCell>
        <mxCell id="FPwjYm_Yo13kNJ0HPoff-9" value="&lt;font style=&quot;font-size: 20px;&quot;&gt;Search engine&lt;/font&gt;" style="rounded=1;whiteSpace=wrap;html=1;fillColor=#e6d0de;gradientColor=#d5739d;strokeColor=#996185;" parent="1" vertex="1">
          <mxGeometry x="-190" y="200" width="200" height="100" as="geometry" />
        </mxCell>
        <mxCell id="FPwjYm_Yo13kNJ0HPoff-11" value="google" style="rounded=1;whiteSpace=wrap;html=1;fillColor=#f5f5f5;gradientColor=#b3b3b3;strokeColor=#666666;fontSize=14;" parent="1" vertex="1">
          <mxGeometry x="-160" y="430" width="140" height="40" as="geometry" />
        </mxCell>
        <mxCell id="FPwjYm_Yo13kNJ0HPoff-14" value="Bing" style="rounded=1;whiteSpace=wrap;html=1;fillColor=#f5f5f5;gradientColor=#b3b3b3;strokeColor=#666666;fontSize=14;" parent="1" vertex="1">
          <mxGeometry x="-160" y="470" width="140" height="40" as="geometry" />
        </mxCell>
        <mxCell id="FPwjYm_Yo13kNJ0HPoff-15" value="Yahoo" style="rounded=1;whiteSpace=wrap;html=1;fillColor=#f5f5f5;gradientColor=#b3b3b3;strokeColor=#666666;fontSize=14;" parent="1" vertex="1">
          <mxGeometry x="-160" y="510" width="140" height="40" as="geometry" />
        </mxCell>
        <mxCell id="RJ8ETu-vLiPewFTwWk4d-27" style="edgeStyle=orthogonalEdgeStyle;rounded=0;orthogonalLoop=1;jettySize=auto;html=1;entryX=0.5;entryY=0;entryDx=0;entryDy=0;" edge="1" parent="1" source="FPwjYm_Yo13kNJ0HPoff-16" target="FPwjYm_Yo13kNJ0HPoff-6">
          <mxGeometry relative="1" as="geometry" />
        </mxCell>
        <mxCell id="FPwjYm_Yo13kNJ0HPoff-16" value="Yandex" style="rounded=1;whiteSpace=wrap;html=1;fillColor=#f5f5f5;gradientColor=#b3b3b3;strokeColor=#666666;fontSize=14;" parent="1" vertex="1">
          <mxGeometry x="-160" y="550" width="140" height="40" as="geometry" />
        </mxCell>
        <mxCell id="RJ8ETu-vLiPewFTwWk4d-16" style="edgeStyle=orthogonalEdgeStyle;rounded=0;orthogonalLoop=1;jettySize=auto;html=1;exitX=0.5;exitY=1;exitDx=0;exitDy=0;entryX=0.5;entryY=0;entryDx=0;entryDy=0;" edge="1" parent="1" source="FPwjYm_Yo13kNJ0HPoff-18" target="FPwjYm_Yo13kNJ0HPoff-20">
          <mxGeometry relative="1" as="geometry" />
        </mxCell>
        <mxCell id="FPwjYm_Yo13kNJ0HPoff-18" value="&lt;font style=&quot;font-size: 20px;&quot;&gt;Social Media search&lt;/font&gt;" style="rounded=1;whiteSpace=wrap;html=1;fillColor=#e6d0de;gradientColor=#d5739d;strokeColor=#996185;" parent="1" vertex="1">
          <mxGeometry x="85" y="200" width="200" height="100" as="geometry" />
        </mxCell>
        <mxCell id="FPwjYm_Yo13kNJ0HPoff-20" value="Instagram" style="rounded=1;whiteSpace=wrap;html=1;fillColor=#f5f5f5;gradientColor=#b3b3b3;strokeColor=#666666;fontSize=14;" parent="1" vertex="1">
          <mxGeometry x="115" y="340" width="140" height="40" as="geometry" />
        </mxCell>
        <mxCell id="FPwjYm_Yo13kNJ0HPoff-23" value="Facebook" style="rounded=1;whiteSpace=wrap;html=1;fillColor=#f5f5f5;gradientColor=#b3b3b3;strokeColor=#666666;fontSize=14;" parent="1" vertex="1">
          <mxGeometry x="115" y="380" width="140" height="40" as="geometry" />
        </mxCell>
        <mxCell id="RJ8ETu-vLiPewFTwWk4d-34" style="edgeStyle=orthogonalEdgeStyle;rounded=0;orthogonalLoop=1;jettySize=auto;html=1;exitX=0.5;exitY=1;exitDx=0;exitDy=0;entryX=1.006;entryY=0.13;entryDx=0;entryDy=0;entryPerimeter=0;" edge="1" parent="1" source="FPwjYm_Yo13kNJ0HPoff-24" target="FPwjYm_Yo13kNJ0HPoff-6">
          <mxGeometry relative="1" as="geometry">
            <Array as="points">
              <mxPoint x="185" y="673" />
            </Array>
          </mxGeometry>
        </mxCell>
        <mxCell id="FPwjYm_Yo13kNJ0HPoff-24" value="Twitter" style="rounded=1;whiteSpace=wrap;html=1;fillColor=#f5f5f5;gradientColor=#b3b3b3;strokeColor=#666666;fontSize=14;" parent="1" vertex="1">
          <mxGeometry x="115" y="420" width="140" height="40" as="geometry" />
        </mxCell>
        <mxCell id="FPwjYm_Yo13kNJ0HPoff-33" value="Sim Network Name" style="rounded=1;whiteSpace=wrap;html=1;fillColor=#f5f5f5;gradientColor=#b3b3b3;strokeColor=#666666;fontSize=14;" parent="1" vertex="1">
          <mxGeometry x="310" y="360" width="90" height="40" as="geometry" />
        </mxCell>
        <mxCell id="FPwjYm_Yo13kNJ0HPoff-34" value="Registered Name" style="rounded=1;whiteSpace=wrap;html=1;fillColor=#f5f5f5;gradientColor=#b3b3b3;strokeColor=#666666;fontSize=14;" parent="1" vertex="1">
          <mxGeometry x="310" y="400" width="90" height="40" as="geometry" />
        </mxCell>
        <mxCell id="RJ8ETu-vLiPewFTwWk4d-19" style="edgeStyle=orthogonalEdgeStyle;rounded=0;orthogonalLoop=1;jettySize=auto;html=1;exitX=0.5;exitY=1;exitDx=0;exitDy=0;entryX=0.5;entryY=0;entryDx=0;entryDy=0;" edge="1" parent="1" source="FPwjYm_Yo13kNJ0HPoff-35" target="FPwjYm_Yo13kNJ0HPoff-53">
          <mxGeometry relative="1" as="geometry" />
        </mxCell>
        <mxCell id="FPwjYm_Yo13kNJ0HPoff-35" value="Address" style="rounded=1;whiteSpace=wrap;html=1;fillColor=#f5f5f5;gradientColor=#b3b3b3;strokeColor=#666666;fontSize=14;" parent="1" vertex="1">
          <mxGeometry x="310" y="440" width="90" height="40" as="geometry" />
        </mxCell>
        <mxCell id="RJ8ETu-vLiPewFTwWk4d-13" style="edgeStyle=orthogonalEdgeStyle;rounded=0;orthogonalLoop=1;jettySize=auto;html=1;exitX=1;exitY=0.5;exitDx=0;exitDy=0;entryX=1;entryY=0.5;entryDx=0;entryDy=0;" edge="1" parent="1" source="FPwjYm_Yo13kNJ0HPoff-45" target="FPwjYm_Yo13kNJ0HPoff-9">
          <mxGeometry relative="1" as="geometry">
            <Array as="points">
              <mxPoint x="40" y="380" />
              <mxPoint x="40" y="250" />
            </Array>
          </mxGeometry>
        </mxCell>
        <mxCell id="RJ8ETu-vLiPewFTwWk4d-15" style="edgeStyle=orthogonalEdgeStyle;rounded=0;orthogonalLoop=1;jettySize=auto;html=1;exitX=0.5;exitY=1;exitDx=0;exitDy=0;entryX=0.5;entryY=0;entryDx=0;entryDy=0;" edge="1" parent="1" source="FPwjYm_Yo13kNJ0HPoff-45" target="FPwjYm_Yo13kNJ0HPoff-11">
          <mxGeometry relative="1" as="geometry" />
        </mxCell>
        <mxCell id="FPwjYm_Yo13kNJ0HPoff-45" value="Info Searcher Tool" style="rounded=1;whiteSpace=wrap;html=1;fillColor=#f5f5f5;gradientColor=#b3b3b3;strokeColor=#666666;fontSize=14;" parent="1" vertex="1">
          <mxGeometry x="-150" y="350" width="120" height="60" as="geometry" />
        </mxCell>
        <mxCell id="RJ8ETu-vLiPewFTwWk4d-36" style="edgeStyle=orthogonalEdgeStyle;rounded=0;orthogonalLoop=1;jettySize=auto;html=1;exitX=0.5;exitY=1;exitDx=0;exitDy=0;" edge="1" parent="1" source="FPwjYm_Yo13kNJ0HPoff-53">
          <mxGeometry relative="1" as="geometry">
            <mxPoint x="10" y="700" as="targetPoint" />
            <Array as="points">
              <mxPoint x="355" y="699" />
            </Array>
          </mxGeometry>
        </mxCell>
        <mxCell id="FPwjYm_Yo13kNJ0HPoff-53" value="Authentic Score Generator(tool)." style="rounded=1;whiteSpace=wrap;html=1;fillColor=#f5f5f5;gradientColor=#b3b3b3;strokeColor=#666666;fontSize=14;" parent="1" vertex="1">
          <mxGeometry x="295" y="560" width="120" height="60" as="geometry" />
        </mxCell>
        <mxCell id="RJ8ETu-vLiPewFTwWk4d-26" style="edgeStyle=orthogonalEdgeStyle;rounded=0;orthogonalLoop=1;jettySize=auto;html=1;exitX=0.5;exitY=1;exitDx=0;exitDy=0;entryX=0.5;entryY=0;entryDx=0;entryDy=0;" edge="1" parent="1" source="FPwjYm_Yo13kNJ0HPoff-58" target="FPwjYm_Yo13kNJ0HPoff-62">
          <mxGeometry relative="1" as="geometry" />
        </mxCell>
        <mxCell id="FPwjYm_Yo13kNJ0HPoff-58" value="&lt;font style=&quot;font-size: 20px;&quot;&gt;Email Lookup&lt;/font&gt;" style="rounded=1;whiteSpace=wrap;html=1;fillColor=#e6d0de;gradientColor=#d5739d;strokeColor=#996185;" parent="1" vertex="1">
          <mxGeometry x="420" y="200" width="210" height="100" as="geometry" />
        </mxCell>
        <mxCell id="FPwjYm_Yo13kNJ0HPoff-62" value="IP address" style="rounded=1;whiteSpace=wrap;html=1;fillColor=#f5f5f5;gradientColor=#b3b3b3;strokeColor=#666666;fontSize=14;" parent="1" vertex="1">
          <mxGeometry x="455" y="360" width="140" height="40" as="geometry" />
        </mxCell>
        <mxCell id="FPwjYm_Yo13kNJ0HPoff-64" value="Credit score" style="rounded=1;whiteSpace=wrap;html=1;fillColor=#f5f5f5;gradientColor=#b3b3b3;strokeColor=#666666;fontSize=14;" parent="1" vertex="1">
          <mxGeometry x="455" y="400" width="140" height="40" as="geometry" />
        </mxCell>
        <mxCell id="FPwjYm_Yo13kNJ0HPoff-65" value="Username" style="rounded=1;whiteSpace=wrap;html=1;fillColor=#f5f5f5;gradientColor=#b3b3b3;strokeColor=#666666;fontSize=14;" parent="1" vertex="1">
          <mxGeometry x="455" y="440" width="140" height="40" as="geometry" />
        </mxCell>
        <mxCell id="FPwjYm_Yo13kNJ0HPoff-66" value="Derived emails" style="rounded=1;whiteSpace=wrap;html=1;fillColor=#f5f5f5;gradientColor=#b3b3b3;strokeColor=#666666;fontSize=14;" parent="1" vertex="1">
          <mxGeometry x="455" y="480" width="140" height="40" as="geometry" />
        </mxCell>
        <mxCell id="RJ8ETu-vLiPewFTwWk4d-38" style="edgeStyle=orthogonalEdgeStyle;rounded=0;orthogonalLoop=1;jettySize=auto;html=1;entryX=0.998;entryY=0.666;entryDx=0;entryDy=0;entryPerimeter=0;" edge="1" parent="1" source="FPwjYm_Yo13kNJ0HPoff-67" target="FPwjYm_Yo13kNJ0HPoff-6">
          <mxGeometry relative="1" as="geometry">
            <Array as="points">
              <mxPoint x="525" y="727" />
            </Array>
          </mxGeometry>
        </mxCell>
        <mxCell id="FPwjYm_Yo13kNJ0HPoff-67" value="Social media handles" style="rounded=1;whiteSpace=wrap;html=1;fontSize=14;fillColor=#f5f5f5;gradientColor=#b3b3b3;strokeColor=#666666;" parent="1" vertex="1">
          <mxGeometry x="455" y="520" width="140" height="40" as="geometry" />
        </mxCell>
        <mxCell id="RJ8ETu-vLiPewFTwWk4d-3" style="edgeStyle=orthogonalEdgeStyle;rounded=0;orthogonalLoop=1;jettySize=auto;html=1;entryX=0.5;entryY=0;entryDx=0;entryDy=0;" edge="1" parent="1" source="FPwjYm_Yo13kNJ0HPoff-72" target="FPwjYm_Yo13kNJ0HPoff-2">
          <mxGeometry relative="1" as="geometry" />
        </mxCell>
        <mxCell id="RJ8ETu-vLiPewFTwWk4d-4" style="edgeStyle=orthogonalEdgeStyle;rounded=0;orthogonalLoop=1;jettySize=auto;html=1;entryX=0.5;entryY=0;entryDx=0;entryDy=0;" edge="1" parent="1" source="FPwjYm_Yo13kNJ0HPoff-72" target="FPwjYm_Yo13kNJ0HPoff-4">
          <mxGeometry relative="1" as="geometry" />
        </mxCell>
        <mxCell id="RJ8ETu-vLiPewFTwWk4d-5" style="edgeStyle=orthogonalEdgeStyle;rounded=0;orthogonalLoop=1;jettySize=auto;html=1;" edge="1" parent="1" source="FPwjYm_Yo13kNJ0HPoff-72" target="RJ8ETu-vLiPewFTwWk4d-1">
          <mxGeometry relative="1" as="geometry">
            <Array as="points">
              <mxPoint x="368" y="10" />
              <mxPoint x="780" y="10" />
            </Array>
          </mxGeometry>
        </mxCell>
        <mxCell id="RJ8ETu-vLiPewFTwWk4d-6" style="edgeStyle=orthogonalEdgeStyle;rounded=0;orthogonalLoop=1;jettySize=auto;html=1;entryX=0.5;entryY=0;entryDx=0;entryDy=0;" edge="1" parent="1" source="FPwjYm_Yo13kNJ0HPoff-72" target="FPwjYm_Yo13kNJ0HPoff-1">
          <mxGeometry relative="1" as="geometry">
            <Array as="points">
              <mxPoint x="368" y="10" />
              <mxPoint x="-90" y="10" />
            </Array>
          </mxGeometry>
        </mxCell>
        <mxCell id="FPwjYm_Yo13kNJ0HPoff-72" value="&lt;font style=&quot;font-size: 28px;&quot;&gt;OSINT me (Om)&lt;/font&gt;" style="rounded=1;whiteSpace=wrap;html=1;fillColor=#dae8fc;gradientColor=#7ea6e0;strokeColor=#6c8ebf;" parent="1" vertex="1">
          <mxGeometry x="230" y="-130" width="275" height="90" as="geometry" />
        </mxCell>
        <mxCell id="RJ8ETu-vLiPewFTwWk4d-24" style="edgeStyle=orthogonalEdgeStyle;rounded=0;orthogonalLoop=1;jettySize=auto;html=1;" edge="1" parent="1" source="RJ8ETu-vLiPewFTwWk4d-1" target="RJ8ETu-vLiPewFTwWk4d-22">
          <mxGeometry relative="1" as="geometry" />
        </mxCell>
        <mxCell id="RJ8ETu-vLiPewFTwWk4d-1" value="&lt;span style=&quot;font-size: 24px;&quot;&gt;Other IDs&lt;br&gt;(example:upi)&lt;br&gt;&lt;/span&gt;" style="rounded=1;whiteSpace=wrap;html=1;fillColor=#f8cecc;gradientColor=#ea6b66;strokeColor=#b85450;" vertex="1" parent="1">
          <mxGeometry x="690" y="70" width="200" height="100" as="geometry" />
        </mxCell>
        <mxCell id="RJ8ETu-vLiPewFTwWk4d-22" value="Name" style="rounded=1;whiteSpace=wrap;html=1;fillColor=#f5f5f5;gradientColor=#b3b3b3;strokeColor=#666666;fontSize=14;" vertex="1" parent="1">
          <mxGeometry x="720" y="410" width="140" height="40" as="geometry" />
        </mxCell>
        <mxCell id="RJ8ETu-vLiPewFTwWk4d-39" style="edgeStyle=orthogonalEdgeStyle;rounded=0;orthogonalLoop=1;jettySize=auto;html=1;exitX=0.5;exitY=1;exitDx=0;exitDy=0;entryX=0.998;entryY=0.866;entryDx=0;entryDy=0;entryPerimeter=0;" edge="1" parent="1" source="RJ8ETu-vLiPewFTwWk4d-23" target="FPwjYm_Yo13kNJ0HPoff-6">
          <mxGeometry relative="1" as="geometry" />
        </mxCell>
        <mxCell id="RJ8ETu-vLiPewFTwWk4d-23" value="Bank Name" style="rounded=1;whiteSpace=wrap;html=1;fillColor=#f5f5f5;gradientColor=#b3b3b3;strokeColor=#666666;fontSize=14;" vertex="1" parent="1">
          <mxGeometry x="720" y="450" width="140" height="40" as="geometry" />
        </mxCell>
        <mxCell id="RJ8ETu-vLiPewFTwWk4d-25" style="edgeStyle=orthogonalEdgeStyle;rounded=0;orthogonalLoop=1;jettySize=auto;html=1;exitX=0.5;exitY=1;exitDx=0;exitDy=0;" edge="1" parent="1" source="FPwjYm_Yo13kNJ0HPoff-24" target="FPwjYm_Yo13kNJ0HPoff-24">
          <mxGeometry relative="1" as="geometry" />
        </mxCell>
      </root>
    </mxGraphModel>
  </diagram>
</mxfile>
